<svg id="Layer_1" data-name="Layer 1" xmlns="http://www.w3.org/2000/svg" viewBox="0 0 442.56 265.33"><defs><style>.cls-1{fill:#fff;}</style></defs><title>logo-pig</title><path class="cls-1" d="M345.74,27.47a62.9,62.9,0,0,0-2.69-5.83c-1.08-1.87-2.5-3.56-4.14-5.85,2.78,1.11,5,2,7.19,2.89,13,5.38,25.78,11.11,36.95,19.84,7.46,5.82,14.35,12.2,19,20.63a32.39,32.39,0,0,1,2.87,25,25.88,25.88,0,0,1-1.57,3.44,45.38,45.38,0,0,0-24-18.47c5.38-.67,10.43,1.39,16.13,1.69-6.58-5.67-14.24-8.3-21.86-11l.09-.82,14.9.95.16-.33c-2.16-1-4.29-2-6.48-2.87-8.56-3.38-17.59-4.39-26.66-5.19-13.42-1.19-26.88-2.13-40.23-3.87-6.38-.84-12.57-3.21-18.81-5-4.86-1.37-9.68-2.87-14.44-4.28L287,36.86C263.52,26,239.76,20.28,214.27,25.27l-.21-.79c5.37-1.86,10.68-4,16.14-5.52s11.22-2.58,16.88-4.26l-14-1.47-.49-.37a4.84,4.84,0,0,0,.93-.22C245.47,7.11,257.65,2.48,270.78.71c16-2.16,31,.65,45.41,7.74,10,4.91,18.92,11.38,27.53,18.34l1.27,1Z"/><path class="cls-1" d="M58.75,62.75C56.86,66.59,55.31,70,53.48,73.3a8.51,8.51,0,0,1-3.08,3.11c-6.28,3.56-8,9.07-6.49,15.64,1.74,7.3,4.06,14.46,6,21.7,1.35,5,2.82,10,3.7,15,1.94,11.27-9.78,20.89-20.51,17-7.06-2.59-12.33-7.61-17.19-13.13-1-1.12-1.92-2.29-3-3.33-2.28-2.21-3.82-1.93-5.23,1-.84,1.76-1.44,3.64-2.24,5.42C4.82,137.18,4.19,139,2,138.28s-2.22-2.34-1.78-4.22c.7-3,1.11-6,2-8.92,2.62-8.22,10.12-10.25,16.52-4.54,3.91,3.49,7.64,7.19,11.62,10.6a16.4,16.4,0,0,0,4.94,2.63c2.82,1.06,4.88,0,5-3a29.16,29.16,0,0,0-.85-9.47c-1.85-6.3-4.44-12.38-6.39-18.65a48.36,48.36,0,0,1-2.28-20.18c1.5-13.11,10.72-21,23.9-20.24C56,62.39,57.19,62.58,58.75,62.75Z"/><path class="cls-1" d="M51,101.76a36.18,36.18,0,0,1,.91-17.88C58.45,62.78,72.59,50.19,94.33,46c9.8-1.91,19.66-1.59,29.53-1.69a185.76,185.76,0,0,0,54.27-9c10.84-3.42,22.07-4.56,33.4-4.82a5,5,0,0,1,1.16.14c.13,0,.23.2.1.08L169.37,42.69l.09.91,18.8,6.09-.2.83c-1.85-.18-3.7-.35-5.55-.55-21.5-2.25-43-3.49-64.47.23-15.5,2.69-30.26,7.55-43.12,17-11.5,8.45-19.1,19.72-23.43,33.26C51.35,100.9,51.16,101.32,51,101.76Z"/><path class="cls-1" d="M248.67,152c1.79,5.4,3.17,11,5.46,16.16a142.85,142.85,0,0,0,9.24,17.36A33,33,0,0,0,277,197.86a3.59,3.59,0,0,1,2.28,4.14c-1.69,10.8.41,21.05,4.7,30.93,1.56,3.59,3.36,7.08,5.2,10.52,2.5,4.66,5,5.68,10.24,4.78a39.78,39.78,0,0,1,7.45-.74c4.63.08,9.12,5.57,8.39,10.12a2.75,2.75,0,0,1-1.48,1.85c-6.27,2.21-12.68,3.59-19.36,2.3-4.69-.91-7.82-3.94-9.64-8.18-2.37-5.54-4.73-11.11-6.6-16.82-2.43-7.43-4.52-15-6.49-22.54a43.62,43.62,0,0,0-7.17-15.71c-9.41-12.38-13.6-26.65-15.58-41.77-.2-1.54-.38-3.09-.57-4.64Z"/><path class="cls-1" d="M44.45,157.44c1.59,5,3.31,10,4.71,15.1a57,57,0,0,1,1.74,9.7c.12,1.25-.5,3.3-1.42,3.79-9.94,5.23-13.65,14.15-15.18,24.54a99.82,99.82,0,0,0-.09,30.91c.11.7.26,1.39.43,2.07,1.27,5.11,3.63,6.69,8.89,6a37.7,37.7,0,0,1,5.36-.65c6.34,0,8.86,5.45,8.77,10.1a3.49,3.49,0,0,1-1.83,2.41c-7.11,3.34-14.54,4.84-22.39,3.41A6.64,6.64,0,0,1,27.76,259a80.3,80.3,0,0,1-1.29-11.66c-.23-13.69,1.48-27.23,3.73-40.69a36.28,36.28,0,0,1,9.15-18.53A21.74,21.74,0,0,0,45,171c-.34-4.45-.73-8.89-1.1-13.33Z"/><path class="cls-1" d="M104.64,177.34a34.5,34.5,0,0,1-1.82,5,12.49,12.49,0,0,0-.06,12.78,70.63,70.63,0,0,0,4.51,6.87A119.58,119.58,0,0,1,123.56,232c1.52,4.24,2.76,5,7.21,4.55a60.66,60.66,0,0,0,6.95-1.15c3.58-.83,6.56-.22,8.53,3.13a37.4,37.4,0,0,1,3.4,6.35c.89,2.56-.08,3.92-2.71,4.37a139.38,139.38,0,0,1-14.17,2.06,25.88,25.88,0,0,1-8.75-1.19,8.81,8.81,0,0,1-6.52-6.53c-3.71-16.58-11.18-31.7-18-47.06a13.44,13.44,0,0,0-.67-1.5c-2.46-4.1-2.53-7.74,1.23-11.36,1.78-1.71,2.67-4.34,4-6.55Z"/><path class="cls-1" d="M353.38,106.48a22.44,22.44,0,0,1-13.68-11c-4.7-8.44-5.33-17.59-4.44-26.93.43-4.5,1.41-9,2.15-13.44.28-1.66,1.09-2.47,2.75-1.47C351.09,60.21,361.79,67,369.5,77.52c3,4,5.31,8.4,4.59,13.67a13.37,13.37,0,0,1-1.92,5.09,9.45,9.45,0,0,1-.45-1.15c-2-7.71-6.6-13.43-13.23-17.58-3.38-2.11-6.93-4-10.42-5.89-1.21-.67-2.59-1-3,.8-1.39,6.45-2.52,12.92-.9,19.53C345.63,97.86,349,102.44,353.38,106.48Z"/><path class="cls-1" d="M245.62,183.83c-10.55.76-20.62-1.48-30.35-5.5-8.85-3.65-17.78-7-27.34-8.32-5.35-.72-10.61-1.38-16.08-.07-5.11,1.22-9.8-1-14.32-3.4-5-2.68-10.11-5.35-15.35-7.61a79.43,79.43,0,0,0-23.89-5.74,5.94,5.94,0,0,1-1.91-.5c9.86-1.45,19.52-.27,29,2.26,5,1.33,9.91,2.94,14.78,4.64a33.28,33.28,0,0,0,12.44,1.88,75.73,75.73,0,0,1,32.76,6.24c10.07,4.3,20,8.86,30.14,13.1C238.75,182.16,242.25,182.84,245.62,183.83Z"/><path class="cls-1" d="M124.58,159a12.94,12.94,0,0,1-2.37.73c-7.15.81-13.2,3.82-17.26,9.76a75.58,75.58,0,0,1-37.12,28.8c-8.75,3.22-12.95,9.12-14.22,17.74-.94,6.42-1.55,12.9-2.32,19.35a5.91,5.91,0,0,1-.56,2.17,52.85,52.85,0,0,1-1.67-16.63,70,70,0,0,1,5.43-23c1.11-2.68,2.77-4.08,5.77-4.28,6.21-.4,12.29-1.53,17.87-4.51,9.1-4.85,14-13,17.19-22.35a6.34,6.34,0,0,1,4.34-4.42c7.43-2.52,14.83-5.17,22.89-4.39.6.06,1.2.14,1.8.22Z"/><path class="cls-1" d="M303.93,235.09c-1.93-3.61-3.49-6.59-5.09-9.55a42.6,42.6,0,0,0-9.75-12.26,2.74,2.74,0,0,1-.78-3.71c5.39-11.5,5.36-22.84-1.11-34-1.49-2.55-1.27-3.52.87-5.28,13.15-10.8,23.59-23.56,28.89-40a1.5,1.5,0,0,1,.5-.72,41.54,41.54,0,0,1-4.11,17.7,142,142,0,0,1-15,25,10.6,10.6,0,0,0-1.9,5.57q-.93,14.79-1.38,29.59a14.46,14.46,0,0,0,1.14,6.1C299.26,220.31,302.31,227.08,303.93,235.09Z"/><path class="cls-1" d="M323.92,138.18c.79,3.57,1.29,6.91,2.29,10.09,2.63,8.35,8.47,14.15,15.71,18.63,9.69,6,20.32,9.66,31.34,12.26,5.16,1.22,10.33,2.34,15.48,3.63-11.1-.35-22.17-1-33.07-3.38-7.83-1.72-15.52-3.81-22.57-7.72-5.74-3.19-10.65-7.27-12.73-13.83C318.12,150.76,320.06,144.39,323.92,138.18Z"/><path class="cls-1" d="M416.24,183.77c-.69-.06-1.4-.07-2.09-.17-4.55-.72-6.33-4.94-3.41-8.48,6.17-7.48,14.33-11.46,23.82-12.71a7,7,0,0,1,6.37,2.31c2,2.33,2.28,5,.13,7.18C434.2,178.72,426.13,183.17,416.24,183.77Z"/><path class="cls-1" d="M253.85,194.18c.38,8.21.71,16.43,1.17,24.64a39.87,39.87,0,0,0,1,7c1,4,3.63,6.05,8.37,6.62,1.48.18,3,.3,4.45.4,4.73.31,8.5,5.16,7.34,9.78a3.58,3.58,0,0,1-2.46,2.22,65,65,0,0,1-11.92-.27c-6.48-1-11.43-4.79-11.17-13.14.35-11,.12-22.1,2.06-33,.26-1.44.61-2.86.91-4.29Z"/><path class="cls-1" d="M436.81,160.53c-8.08-1.15-15.19-4.19-19.45-11.46a45.42,45.42,0,0,0-13.14-14.14c-6.76-4.84-11.12-11.27-10.75-20,.24-5.53,2.44-10.44,5.54-15.12-.09,1.08-.2,2.16-.28,3.25s-.14,2.19-.25,3.28c-1,9.93,2.21,17.94,10.34,24a33.54,33.54,0,0,1,12.5,17.22c1.08,3.49,3.88,5.64,6.76,7.57S433.9,158.73,436.81,160.53Z"/><text></text><path class="cls-1" d="M142.77,173.2c-.63,5.35-3.83,9-7.79,12.06-1,.77-2,1.46-3,2.2-4.58,3.39-5.65,6.85-3.73,12.32,1.68,4.8,3.45,9.57,5.16,14.35a8.28,8.28,0,0,1,.49,2.25A50.78,50.78,0,0,1,123.38,198c-.76-2.3-1.28-4.68-1.86-7-.37-1.51-.1-3,1.45-3.59A44.1,44.1,0,0,0,142.77,173.2Z"/><path class="cls-1" d="M383.35,124.2c-3-2.08-3-2.08-4.6.94-1.15,2.21-3.37,2.87-5.79,1.7s-3.28-3.18-2.38-5.47a5.3,5.3,0,0,0,.41-2.47c-.31-2.22.83-2.74,2.72-2.68C378.33,116.36,381.58,118.94,383.35,124.2Z"/></svg>