<svg id="Layer_1" data-name="Layer 1" xmlns="http://www.w3.org/2000/svg" viewBox="0 0 445.74 85.33"><defs><style>.cls-1,.cls-3{fill:#fff;}.cls-2{font-size:41.63px;fill:#ff3f00;stroke:#ff3f00;stroke-miterlimit:10;stroke-width:0.5px;font-family:Haymaker, Haymaker;}.cls-3{font-size:30.62px;font-family:Quicksand-Regular, Quicksand;}.cls-4{letter-spacing:-0.02em;}.cls-5{letter-spacing:0.01em;}.cls-6{letter-spacing:-0.04em;}.cls-7{letter-spacing:-0.02em;}</style></defs><title>logo</title><path class="cls-1" d="M111.19,8.83c-.28-.62-.52-1.28-.86-1.87s-.8-1.14-1.33-1.88c.89.36,1.6.63,2.31.93a49.74,49.74,0,0,1,11.89,6.38A22.21,22.21,0,0,1,129.3,19a10.44,10.44,0,0,1,.93,8.05,9.39,9.39,0,0,1-.51,1.11A14.58,14.58,0,0,0,122,22.24c1.73-.22,3.35.44,5.18.54a20.76,20.76,0,0,0-7-3.54l0-.27,4.79.31,0-.11c-.7-.31-1.38-.64-2.09-.92a30.15,30.15,0,0,0-8.57-1.67c-4.32-.38-8.65-.69-12.94-1.25a43.49,43.49,0,0,1-6-1.59c-1.56-.44-3.11-.93-4.64-1.38l1.58-.51c-7.56-3.5-15.2-5.33-23.4-3.72l-.07-.26c1.73-.6,3.44-1.27,5.2-1.77s3.61-.83,5.42-1.37L75,4.25l-.16-.11a2.64,2.64,0,0,0,.3-.07,41.67,41.67,0,0,1,12-3.84,24.75,24.75,0,0,1,14.6,2.49,47.76,47.76,0,0,1,8.86,5.9l.4.32Z"/><path class="cls-1" d="M18.89,20.18c-.6,1.24-1.1,2.34-1.69,3.39a2.74,2.74,0,0,1-1,1,4.17,4.17,0,0,0-2.09,5c.56,2.34,1.31,4.64,1.94,7,.43,1.6.91,3.2,1.19,4.83a5,5,0,0,1-6.6,5.46,14,14,0,0,1-5.53-4.23c-.31-.36-.61-.73-1-1.07-.73-.71-1.22-.62-1.68.32-.27.56-.46,1.17-.72,1.74s-.41,1.06-1.12.83-.71-.75-.57-1.35c.22-1,.35-1.94.65-2.87C1.56,37.6,4,37,6,38.79c1.26,1.12,2.46,2.31,3.74,3.41a5.38,5.38,0,0,0,1.59.84c.91.34,1.57,0,1.62-.95A9.42,9.42,0,0,0,12.71,39c-.6-2-1.43-4-2.06-6a15.48,15.48,0,0,1-.73-6.49A6.91,6.91,0,0,1,17.61,20C18,20.07,18.39,20.13,18.89,20.18Z"/><path class="cls-1" d="M16.4,32.73A11.66,11.66,0,0,1,16.7,27c2.1-6.79,6.65-10.84,13.64-12.2a52,52,0,0,1,9.49-.55,59.53,59.53,0,0,0,17.46-2.9A38.26,38.26,0,0,1,68,9.78a1.5,1.5,0,0,1,.37.05s.08.06,0,0l-14,3.88,0,.29,6,2-.07.27-1.78-.18C51.78,15.35,44.86,15,38,16.15A32.05,32.05,0,0,0,24.1,21.61a20.69,20.69,0,0,0-7.54,10.7A3.61,3.61,0,0,1,16.4,32.73Z"/><path class="cls-1" d="M80,48.89c.57,1.74,1,3.53,1.75,5.2a47.32,47.32,0,0,0,3,5.58,10.7,10.7,0,0,0,4.38,4A1.15,1.15,0,0,1,89.81,65a17.71,17.71,0,0,0,1.52,9.94c.5,1.16,1.07,2.28,1.67,3.39.8,1.49,1.61,1.83,3.29,1.53a12.92,12.92,0,0,1,2.4-.23,3.07,3.07,0,0,1,2.7,3.25.91.91,0,0,1-.48.6,11.85,11.85,0,0,1-6.23.74,4.18,4.18,0,0,1-3.1-2.64c-.76-1.78-1.52-3.57-2.12-5.4-.78-2.39-1.45-4.82-2.09-7.25a13.93,13.93,0,0,0-2.3-5.06c-3-4-4.38-8.57-5-13.43-.07-.5-.13-1-.19-1.49Z"/><path class="cls-1" d="M14.3,50.63c.51,1.62,1.06,3.23,1.51,4.86a18.39,18.39,0,0,1,.56,3.12,1.48,1.48,0,0,1-.46,1.22c-3.19,1.68-4.39,4.55-4.88,7.89a32.17,32.17,0,0,0,0,9.94c0,.23.09.45.14.67.41,1.64,1.17,2.15,2.86,1.92A12.62,12.62,0,0,1,15.72,80a2.91,2.91,0,0,1,2.82,3.25,1.09,1.09,0,0,1-.58.77,11.67,11.67,0,0,1-7.21,1.1,2.14,2.14,0,0,1-1.82-1.87,26.4,26.4,0,0,1-.42-3.75,72.69,72.69,0,0,1,1.2-13.09,11.69,11.69,0,0,1,2.95-6,7,7,0,0,0,1.8-5.5c-.11-1.43-.24-2.86-.35-4.29Z"/><path class="cls-1" d="M33.65,57a10.48,10.48,0,0,1-.58,1.6,4,4,0,0,0,0,4.11A21.55,21.55,0,0,0,34.5,65a38.39,38.39,0,0,1,5.24,9.67c.49,1.36.89,1.61,2.32,1.46a18.52,18.52,0,0,0,2.23-.37,2.25,2.25,0,0,1,2.75,1,12.15,12.15,0,0,1,1.09,2c.29.82,0,1.26-.87,1.4a44.35,44.35,0,0,1-4.56.67,8.41,8.41,0,0,1-2.81-.38,2.84,2.84,0,0,1-2.1-2.11C36.6,73,34.19,68.15,32,63.21a4.16,4.16,0,0,0-.22-.48,2.63,2.63,0,0,1,.4-3.66A9.18,9.18,0,0,0,33.44,57Z"/><path class="cls-1" d="M113.65,34.25a7.25,7.25,0,0,1-4.4-3.53,14.5,14.5,0,0,1-1.43-8.66c.14-1.45.46-2.88.7-4.32.08-.54.35-.8.88-.48,3.51,2.11,7,4.3,9.44,7.67a5.91,5.91,0,0,1,1.47,4.4A4.44,4.44,0,0,1,119.7,31a3,3,0,0,1-.15-.38,9.22,9.22,0,0,0-4.25-5.65c-1.09-.68-2.23-1.27-3.35-1.89-.4-.22-.84-.32-1,.25a13.79,13.79,0,0,0-.29,6.29A9.39,9.39,0,0,0,113.65,34.25Z"/><path class="cls-1" d="M79,59.12a21.16,21.16,0,0,1-9.76-1.77,35.58,35.58,0,0,0-8.79-2.67,13.82,13.82,0,0,0-5.17,0c-1.64.4-3.15-.31-4.61-1.09-1.62-.86-3.25-1.72-4.93-2.45A25.73,25.73,0,0,0,38,49.27a1.9,1.9,0,0,1-.61-.16,22.84,22.84,0,0,1,9.34.73c1.6.42,3.18.94,4.75,1.49a10.9,10.9,0,0,0,4,.6,24.31,24.31,0,0,1,10.54,2c3.24,1.38,6.44,2.85,9.69,4.21A27.48,27.48,0,0,0,79,59.12Z"/><path class="cls-1" d="M40.07,51.14a4.75,4.75,0,0,1-.76.24,7.42,7.42,0,0,0-5.56,3.13,24.29,24.29,0,0,1-11.94,9.27,6.56,6.56,0,0,0-4.57,5.7c-.3,2.07-.5,4.15-.74,6.23a2,2,0,0,1-.18.69,16.67,16.67,0,0,1-.54-5.35,22.79,22.79,0,0,1,1.74-7.39,2,2,0,0,1,1.86-1.38,13.89,13.89,0,0,0,5.75-1.45c2.93-1.56,4.5-4.17,5.53-7.18a2,2,0,0,1,1.39-1.43c2.39-.81,4.77-1.66,7.36-1.41l.58.07Z"/><path class="cls-1" d="M97.75,75.61c-.62-1.16-1.12-2.12-1.64-3.07A13.63,13.63,0,0,0,93,68.6a.89.89,0,0,1-.25-1.2,11.15,11.15,0,0,0-.35-10.93c-.48-.82-.41-1.13.28-1.7,4.23-3.47,7.58-7.57,9.29-12.87a.57.57,0,0,1,.16-.23,13.34,13.34,0,0,1-1.32,5.7,46.56,46.56,0,0,1-4.81,8,3.45,3.45,0,0,0-.62,1.8q-.28,4.76-.44,9.51a4.73,4.73,0,0,0,.37,2A32.7,32.7,0,0,1,97.75,75.61Z"/><path class="cls-1" d="M104.18,44.44c.25,1.15.41,2.22.73,3.24a11,11,0,0,0,5.06,6,33.44,33.44,0,0,0,10.08,3.94c1.65.39,3.32.75,5,1.17a58.36,58.36,0,0,1-10.64-1.09,26.21,26.21,0,0,1-7.26-2.48A7.88,7.88,0,0,1,103,50.77,7.31,7.31,0,0,1,104.18,44.44Z"/><path class="cls-1" d="M133.87,59.1c-.22,0-.45,0-.67-.05a1.6,1.6,0,0,1-1.1-2.73,11.57,11.57,0,0,1,7.66-4.09,2.24,2.24,0,0,1,2.05.75,1.57,1.57,0,0,1,0,2.3A12.09,12.09,0,0,1,133.87,59.1Z"/><path class="cls-1" d="M81.64,62.45c.12,2.64.23,5.28.38,7.93a12.89,12.89,0,0,0,.32,2.23A2.71,2.71,0,0,0,85,74.74c.47.06.95.1,1.43.13A2.64,2.64,0,0,1,88.83,78a1.16,1.16,0,0,1-.8.71,20.42,20.42,0,0,1-3.83-.09,3.8,3.8,0,0,1-3.59-4.22,74.11,74.11,0,0,1,.66-10.63c.09-.46.2-.92.3-1.38Z"/><path class="cls-1" d="M140.49,51.63c-2.6-.37-4.89-1.35-6.26-3.69A14.57,14.57,0,0,0,130,43.4,7.31,7.31,0,0,1,126.55,37a9.45,9.45,0,0,1,1.78-4.86c0,.35-.07.7-.09,1s-.05.71-.08,1.06a8,8,0,0,0,3.32,7.72,10.75,10.75,0,0,1,4,5.54,4.78,4.78,0,0,0,2.18,2.43C138.59,50.5,139.55,51.05,140.49,51.63Z"/><text></text><path class="cls-1" d="M45.92,55.7a5.71,5.71,0,0,1-2.51,3.88c-.32.25-.65.47-1,.71a3,3,0,0,0-1.2,4c.54,1.55,1.11,3.08,1.66,4.62a2.89,2.89,0,0,1,.16.72,16.29,16.29,0,0,1-3.37-5.91c-.24-.74-.41-1.51-.6-2.26a.89.89,0,0,1,.47-1.16A14.19,14.19,0,0,0,45.92,55.7Z"/><path class="cls-1" d="M123.29,39.94c-1-.66-1-.66-1.48.31A1.46,1.46,0,0,1,119.18,39a1.54,1.54,0,0,0,.13-.79c-.09-.71.27-.88.88-.86A3.24,3.24,0,0,1,123.29,39.94Z"/><text class="cls-2" transform="translate(148.46 46.5)">PREMIUM PIG</text><text class="cls-3" transform="translate(153.45 70.6)"><tspan class="cls-4">r</tspan><tspan x="12.68" y="0">oa</tspan><tspan class="cls-5" x="50.77" y="0">s</tspan><tspan x="66.29" y="0">ting &amp; ca</tspan><tspan class="cls-6" x="202.24" y="0">t</tspan><tspan class="cls-7" x="213.26" y="0">e</tspan><tspan x="231.27" y="0">ring</tspan></text></svg>