<svg id="Layer_1" data-name="Layer 1" xmlns="http://www.w3.org/2000/svg" viewBox="0 0 268.76 215.22"><defs><style>.cls-1{fill:#fff;}.cls-2,.cls-3{fill:#ff3f00;stroke:#ff3f00;stroke-miterlimit:10;stroke-width:0.5px;}.cls-3{font-size:186.59px;font-family:Haymaker, Haymaker;}</style></defs><title>mobile-logo</title><path class="cls-1" d="M139.79,26.06c-1.24-2.2-2.31-4.53-3.76-6.59s-3.31-3.94-5.49-6.47c3.39,1,6.09,1.81,8.78,2.66,15.86,5,31.54,10.44,45.61,19.58,9.38,6.1,18.17,12.91,24.51,22.36a38.32,38.32,0,0,1,6,29.2A31.17,31.17,0,0,1,213.91,91a53.82,53.82,0,0,0-30.26-19.29c6.28-1.34,12.45.57,19.19.33-8.33-6-17.64-8.31-26.89-10.73l0-1,17.65-.41.16-.41c-2.64-.91-5.26-1.92-7.94-2.71-10.44-3.11-21.18-3.36-32-3.37-15.95,0-31.91.25-47.83-.42-7.6-.32-15.14-2.49-22.69-3.92C77.49,48,71.66,46.72,65.9,45.55l5.65-2.37c-28.84-10.41,108.57-14.66,79-6.15l-.33-.91C156.39,33.38-3.57,30.35,2.71,28s13-4.21,19.46-6.77l-16.6-.3L5,20.51A5.58,5.58,0,0,0,6,20.16C19.49,12.4,33.38,5.69,48.66,2.25,67.26-1.94,85.32-.18,103,6.69c12.27,4.77,23.48,11.46,34.35,18.78l1.59,1.06Z"/><path class="cls-1" d="M157,118.42a26.54,26.54,0,0,1-17.26-11.51c-6.41-9.47-8.1-20.19-8-31.29,0-5.35.74-10.71,1.15-16.06.16-2,1-3,3.09-2C149.48,64.11,162.8,71.06,173,82.61c3.92,4.47,7.12,9.35,6.81,15.65a16.13,16.13,0,0,1-1.73,6.2,11.61,11.61,0,0,1-.66-1.32C174.3,94.26,168.24,88,160,83.79c-4.2-2.15-8.58-4-12.89-5.87-1.5-.67-3.17-.9-3.44,1.25-1,7.74-1.63,15.49,1,23.11C146.93,109.05,151.38,114.11,157,118.42Z"/><path class="cls-1" d="M125.49,158.82c1.3,4.12,2.23,8,3.74,11.65,4,9.58,11.45,15.82,20.45,20.35,12,6.06,24.94,9.3,38.21,11.22,6.2.9,12.42,1.69,18.62,2.68-13.13.73-26.24,1.11-39.34-.57-9.4-1.22-18.69-2.89-27.4-6.78-7.09-3.16-13.3-7.46-16.43-15C120,174.25,121.58,166.54,125.49,158.82Z"/><path class="cls-2" d="M239,203c-.82,0-1.66.07-2.49,0-5.43-.37-8-5.17-4.89-9.64,6.51-9.45,15.71-15,26.78-17.44a8.22,8.22,0,0,1,7.74,2.07c2.63,2.54,3.21,5.69.89,8.45C259.68,195.24,250.63,201.31,239,203Z"/><path class="cls-1" d="M260.89,173.53c-9.65-.53-18.34-3.38-24.12-11.5a53.64,53.64,0,0,0-16.94-15.32c-8.47-5-14.28-12.13-14.74-22.5-.29-6.54,1.79-12.56,5-18.4,0,1.28,0,2.57,0,3.86s.06,2.59,0,3.89c-.18,11.82,4.46,20.92,14.67,27.23a39.66,39.66,0,0,1,16.51,19c1.63,4,5.16,6.26,8.76,8.24S257.27,171.7,260.89,173.53Z"/><text></text><path class="cls-2" d="M194.11,136.21c-3.79-2.14-3.79-2.14-5.32,1.59-1.13,2.72-3.68,3.72-6.65,2.6s-4.2-3.42-3.38-6.21a6.07,6.07,0,0,0,.23-2.95c-.58-2.59.71-3.32,2.94-3.44C187.39,127.48,191.48,130.19,194.11,136.21Z"/><text class="cls-3" transform="translate(0.25 199.3)">P</text></svg>